<svg xmlns="http://www.w3.org/2000/svg" width="68.344" height="30" viewBox="0 0 68.344 30">
  <defs>
    <style>
      .cls-1 {
        fill-rule: evenodd;
        opacity: 0.3;
      }
    </style>
  </defs>
  <path id="logo.svg" class="cls-1" d="M7.925,30.651V22.419H-0.307v8.232H7.925ZM23.907,6a5.893,5.893,0,0,1,3.428-.864q3.252,0,4.424,1.011a4.263,4.263,0,0,1,1.172,3.384v0.82a44.8,44.8,0,0,1-8,2.022,27.585,27.585,0,0,0-6.548,1.919,8.229,8.229,0,0,0-3.53,3.164,8.847,8.847,0,0,0-1.26,4.7,8.667,8.667,0,0,0,2.768,6.592,10.6,10.6,0,0,0,7.573,2.607,12.926,12.926,0,0,0,5.127-1.025,14.837,14.837,0,0,0,4.512-3.076q0.088,0.235.293,0.967,0.468,1.612.791,2.432H42.8a17.645,17.645,0,0,1-1.48-4.175,33.365,33.365,0,0,1-.4-6.05l0.088-9.609q0-5.361-1.1-7.368A8.185,8.185,0,0,0,36.124.139q-2.7-1.3-8.2-1.3Q21.856-1.165,18.78,1a11.636,11.636,0,0,0-4.336,6.68L21.915,9.03A6.005,6.005,0,0,1,23.907,6Zm9.023,11.353a16.263,16.263,0,0,1-.322,4.014,5.156,5.156,0,0,1-1.963,2.725A7.128,7.128,0,0,1,26.4,25.554a4.5,4.5,0,0,1-3.281-1.26,4.036,4.036,0,0,1-1.289-2.988,3.433,3.433,0,0,1,1.611-2.9,15.1,15.1,0,0,1,4.482-1.436,51.367,51.367,0,0,0,5.01-1.26v1.641Zm23.482,3.691q0-7.939.689-10.43a6.507,6.507,0,0,1,1.89-3.442,4.57,4.57,0,0,1,2.93-.952,7.228,7.228,0,0,1,3.867,1.348l2.549-7.178a10.451,10.451,0,0,0-5.42-1.553,6.5,6.5,0,0,0-3.559,1,13.294,13.294,0,0,0-3.53,4.131V-0.462H48.18V30.651h8.232V21.042Z"/>
</svg>
